<mxfile host="app.diagrams.net" modified="2020-11-26T08:08:33.711Z" agent="5.0 (Windows NT 10.0; WOW64) AppleWebKit/537.36 (KHTML, like Gecko) Chrome/67.0.3396.62 Safari/537.36" etag="swhTTmMsCqhA1HniTu-W" version="13.10.3" type="github">
  <diagram id="YJyb38r0s5zvljf6VYvs" name="Page-1">
    <mxGraphModel dx="1606" dy="404" grid="1" gridSize="10" guides="1" tooltips="1" connect="1" arrows="1" fold="1" page="1" pageScale="1" pageWidth="827" pageHeight="1169" math="0" shadow="0">
      <root>
        <mxCell id="0" />
        <mxCell id="1" parent="0" />
        <mxCell id="_442PDbW5w4RXQYZKuXJ-6" value="" style="rounded=0;whiteSpace=wrap;html=1;rotation=-50;shadow=1;sketch=1;fillStyle=solid;fillColor=#919191;" parent="1" vertex="1">
          <mxGeometry x="-503.00000000000006" y="191.52" width="89.38" height="45.73" as="geometry" />
        </mxCell>
        <mxCell id="_442PDbW5w4RXQYZKuXJ-16" value="" style="ellipse;whiteSpace=wrap;html=1;aspect=fixed;shadow=1;sketch=1;strokeColor=#000000;fillStyle=solid;fillColor=#FF9933;" parent="1" vertex="1">
          <mxGeometry x="-417.78" y="246.45999999999995" width="60" height="60" as="geometry" />
        </mxCell>
        <mxCell id="4zhCskh6b3H1Gg-OPVnc-8" value="" style="shape=trapezoid;perimeter=trapezoidPerimeter;whiteSpace=wrap;html=1;fixedSize=1;shadow=1;sketch=1;strokeColor=#000000;fillColor=#919191;opacity=70;size=9.580000000000041;rotation=0;direction=east;" parent="1" vertex="1">
          <mxGeometry x="-357.78000000000003" y="151.61000000000007" width="29.58" height="14.09" as="geometry" />
        </mxCell>
        <mxCell id="4zhCskh6b3H1Gg-OPVnc-9" value="" style="rounded=0;whiteSpace=wrap;html=1;rotation=0;shadow=1;sketch=1;fillStyle=solid;fillColor=#919191;" parent="1" vertex="1">
          <mxGeometry x="-450" y="165.7" width="92.22" height="49.7" as="geometry" />
        </mxCell>
        <mxCell id="4zhCskh6b3H1Gg-OPVnc-11" value="" style="rounded=0;whiteSpace=wrap;html=1;rotation=-140;shadow=0;sketch=1;fillStyle=solid;fillColor=#919191;strokeColor=none;" parent="1" vertex="1">
          <mxGeometry x="-484.7" y="166.96" width="45.16" height="99.91" as="geometry" />
        </mxCell>
        <mxCell id="4zhCskh6b3H1Gg-OPVnc-21" value="" style="rounded=0;whiteSpace=wrap;html=1;shadow=0;sketch=1;rotation=90;" parent="1" vertex="1">
          <mxGeometry x="-440" y="179.51000000000002" width="17.66" height="5" as="geometry" />
        </mxCell>
        <mxCell id="4zhCskh6b3H1Gg-OPVnc-22" value="" style="rounded=0;whiteSpace=wrap;html=1;shadow=0;sketch=1;rotation=90;" parent="1" vertex="1">
          <mxGeometry x="-408.32" y="194.93" width="4.77" height="14.02" as="geometry" />
        </mxCell>
        <mxCell id="4zhCskh6b3H1Gg-OPVnc-25" value="" style="rounded=0;whiteSpace=wrap;html=1;shadow=0;sketch=1;rotation=40;direction=west;opacity=60;dashed=1;" parent="1" vertex="1">
          <mxGeometry x="-491.72" y="191.52" width="69.38" height="37.38" as="geometry" />
        </mxCell>
        <mxCell id="4zhCskh6b3H1Gg-OPVnc-30" value="" style="group;rotation=-120;" parent="1" vertex="1" connectable="0">
          <mxGeometry x="-384.65799604755983" y="184.02294944034864" width="197.1627066801305" height="144.16" as="geometry" />
        </mxCell>
        <mxCell id="4zhCskh6b3H1Gg-OPVnc-31" value="" style="rounded=0;whiteSpace=wrap;html=1;rotation=0;shadow=1;sketch=1;fillStyle=solid;direction=south;fillColor=#919191;" parent="4zhCskh6b3H1Gg-OPVnc-30" vertex="1">
          <mxGeometry x="65" y="5" width="42" height="141.4" as="geometry" />
        </mxCell>
        <mxCell id="4zhCskh6b3H1Gg-OPVnc-35" value="" style="rounded=0;whiteSpace=wrap;html=1;rotation=0;shadow=1;sketch=1;fillColor=#333333;fillStyle=solid;direction=south;" parent="4zhCskh6b3H1Gg-OPVnc-30" vertex="1">
          <mxGeometry x="63" y="60" width="33.11" height="84.16" as="geometry" />
        </mxCell>
        <mxCell id="4zhCskh6b3H1Gg-OPVnc-36" value="" style="rounded=0;whiteSpace=wrap;html=1;shadow=0;sketch=1;rotation=-90;" parent="4zhCskh6b3H1Gg-OPVnc-30" vertex="1">
          <mxGeometry x="89.75" y="114.5" width="17.66" height="5" as="geometry" />
        </mxCell>
        <mxCell id="4zhCskh6b3H1Gg-OPVnc-39" value="" style="rounded=0;whiteSpace=wrap;html=1;shadow=0;sketch=1;rotation=-90;direction=west;opacity=60;dashed=1;" parent="4zhCskh6b3H1Gg-OPVnc-30" vertex="1">
          <mxGeometry x="51" y="77" width="17.66" height="4.52" as="geometry" />
        </mxCell>
        <mxCell id="_442PDbW5w4RXQYZKuXJ-1" value="" style="rounded=0;whiteSpace=wrap;html=1;rotation=0;shadow=1;sketch=1;fillStyle=solid;fillColor=#919191;opacity=70;" parent="4zhCskh6b3H1Gg-OPVnc-30" vertex="1">
          <mxGeometry x="25" y="-17" width="40" height="57" as="geometry" />
        </mxCell>
        <mxCell id="4zhCskh6b3H1Gg-OPVnc-32" value="" style="rounded=0;whiteSpace=wrap;html=1;rotation=-180;shadow=1;sketch=1;fillStyle=solid;fillColor=#919191;opacity=70;strokeWidth=2;" parent="4zhCskh6b3H1Gg-OPVnc-30" vertex="1">
          <mxGeometry x="60" y="-17" width="50" height="23.6" as="geometry" />
        </mxCell>
        <mxCell id="tB11NZ9fUsFray120b_--3" value="" style="rounded=0;whiteSpace=wrap;html=1;shadow=0;sketch=1;strokeColor=none;rotation=-90;fillStyle=solid;fillColor=#B3B3B3;" vertex="1" parent="4zhCskh6b3H1Gg-OPVnc-30">
          <mxGeometry x="57.5" y="-17.21" width="50.5" height="52.42" as="geometry" />
        </mxCell>
        <mxCell id="tB11NZ9fUsFray120b_--12" value="" style="shape=trapezoid;perimeter=trapezoidPerimeter;whiteSpace=wrap;html=1;fixedSize=1;shadow=1;sketch=1;strokeColor=#000000;fillColor=#919191;size=2.6399999999999864;rotation=90;direction=east;" vertex="1" parent="4zhCskh6b3H1Gg-OPVnc-30">
          <mxGeometry x="108" y="95.08" width="18.53" height="14" as="geometry" />
        </mxCell>
        <mxCell id="4zhCskh6b3H1Gg-OPVnc-27" value="" style="rounded=0;whiteSpace=wrap;html=1;shadow=0;sketch=1;rotation=0;direction=west;opacity=60;dashed=1;" parent="4zhCskh6b3H1Gg-OPVnc-30" vertex="1">
          <mxGeometry x="76.10799604755988" y="-22.212949440348638" width="20" height="5" as="geometry" />
        </mxCell>
        <mxCell id="tB11NZ9fUsFray120b_--20" value="" style="rounded=0;whiteSpace=wrap;html=1;shadow=0;sketch=1;rotation=85;fillStyle=solid;strokeColor=none;fillColor=#FFD966;" vertex="1" parent="4zhCskh6b3H1Gg-OPVnc-30">
          <mxGeometry x="57.49851030338624" y="45.981034837679516" width="15.62" height="4.91" as="geometry" />
        </mxCell>
        <mxCell id="4zhCskh6b3H1Gg-OPVnc-10" value="" style="rounded=0;whiteSpace=wrap;html=1;rotation=90;shadow=1;sketch=1;fillColor=#333333;fillStyle=solid;direction=south;" parent="1" vertex="1">
          <mxGeometry x="-400.77" y="131.81" width="55.48" height="110" as="geometry" />
        </mxCell>
        <mxCell id="tB11NZ9fUsFray120b_--1" value="" style="rounded=0;whiteSpace=wrap;html=1;rotation=90;shadow=1;sketch=1;fillColor=#333333;fillStyle=solid;direction=south;" vertex="1" parent="1">
          <mxGeometry x="-358.27" y="179.51" width="41" height="41.77" as="geometry" />
        </mxCell>
        <mxCell id="tB11NZ9fUsFray120b_--2" value="" style="rounded=0;whiteSpace=wrap;html=1;rotation=90;shadow=0;sketch=1;fillColor=#333333;fillStyle=solid;direction=south;strokeColor=none;" vertex="1" parent="1">
          <mxGeometry x="-363.52" y="155.32" width="41" height="52.4" as="geometry" />
        </mxCell>
        <mxCell id="tB11NZ9fUsFray120b_--11" value="" style="group;rotation=10;" vertex="1" connectable="0" parent="1">
          <mxGeometry x="-549.9994857441736" y="210.00398427802818" width="154.82264810017034" height="165.49512356587695" as="geometry" />
        </mxCell>
        <mxCell id="_442PDbW5w4RXQYZKuXJ-5" value="" style="rounded=0;whiteSpace=wrap;html=1;rotation=130;shadow=1;sketch=1;fillStyle=solid;direction=south;fillColor=#919191;" parent="tB11NZ9fUsFray120b_--11" vertex="1">
          <mxGeometry x="43" y="28" width="61" height="140.9" as="geometry" />
        </mxCell>
        <mxCell id="4zhCskh6b3H1Gg-OPVnc-19" value="" style="rounded=0;whiteSpace=wrap;html=1;shadow=0;sketch=1;rotation=40;" parent="tB11NZ9fUsFray120b_--11" vertex="1">
          <mxGeometry x="36" y="52" width="17.66" height="5" as="geometry" />
        </mxCell>
        <mxCell id="4zhCskh6b3H1Gg-OPVnc-16" value="" style="rounded=0;whiteSpace=wrap;html=1;rotation=130;shadow=1;sketch=1;fillColor=#333333;fillStyle=solid;direction=south;" parent="tB11NZ9fUsFray120b_--11" vertex="1">
          <mxGeometry x="41" y="37" width="33.11" height="102.16" as="geometry" />
        </mxCell>
        <mxCell id="4zhCskh6b3H1Gg-OPVnc-15" value="" style="shape=trapezoid;perimeter=trapezoidPerimeter;whiteSpace=wrap;html=1;fixedSize=1;shadow=1;sketch=1;strokeColor=#000000;fillColor=#919191;size=2.6399999999999864;rotation=-141;direction=east;" parent="tB11NZ9fUsFray120b_--11" vertex="1">
          <mxGeometry x="42" y="120" width="18.53" height="12.67" as="geometry" />
        </mxCell>
        <mxCell id="4zhCskh6b3H1Gg-OPVnc-17" value="" style="rounded=0;whiteSpace=wrap;html=1;shadow=0;sketch=1;rotation=40;" parent="tB11NZ9fUsFray120b_--11" vertex="1">
          <mxGeometry x="63" y="117" width="13.65" height="4.26" as="geometry" />
        </mxCell>
        <mxCell id="tB11NZ9fUsFray120b_--5" value="" style="rounded=0;whiteSpace=wrap;html=1;shadow=0;sketch=1;rotation=40;fillStyle=solid;strokeColor=none;fillColor=#FFD966;" vertex="1" parent="tB11NZ9fUsFray120b_--11">
          <mxGeometry x="95" y="161" width="15.62" height="4.91" as="geometry" />
        </mxCell>
        <mxCell id="tB11NZ9fUsFray120b_--6" value="" style="rounded=0;whiteSpace=wrap;html=1;shadow=0;sketch=1;rotation=130;fillStyle=solid;strokeColor=none;fillColor=#FFD966;" vertex="1" parent="tB11NZ9fUsFray120b_--11">
          <mxGeometry x="105" y="162" width="15.62" height="4.91" as="geometry" />
        </mxCell>
        <mxCell id="tB11NZ9fUsFray120b_--8" value="" style="rounded=0;whiteSpace=wrap;html=1;shadow=0;sketch=1;rotation=130;fillStyle=solid;strokeColor=none;fillColor=#FFD966;" vertex="1" parent="tB11NZ9fUsFray120b_--11">
          <mxGeometry x="133" y="125" width="15.62" height="4.91" as="geometry" />
        </mxCell>
        <mxCell id="tB11NZ9fUsFray120b_--7" value="" style="rounded=0;whiteSpace=wrap;html=1;shadow=0;sketch=1;rotation=40;fillStyle=solid;strokeColor=none;fillColor=#FFD966;" vertex="1" parent="tB11NZ9fUsFray120b_--11">
          <mxGeometry x="134" y="115" width="15.62" height="4.91" as="geometry" />
        </mxCell>
        <mxCell id="4zhCskh6b3H1Gg-OPVnc-7" value="" style="shape=trapezoid;perimeter=trapezoidPerimeter;whiteSpace=wrap;html=1;fixedSize=1;shadow=1;sketch=1;strokeColor=#000000;fillColor=#919191;opacity=70;size=10;rotation=-50;direction=east;" parent="tB11NZ9fUsFray120b_--11" vertex="1">
          <mxGeometry x="11.6" y="28.38" width="28.58" height="14.09" as="geometry" />
        </mxCell>
        <mxCell id="tB11NZ9fUsFray120b_--15" value="" style="rounded=0;whiteSpace=wrap;html=1;shadow=0;sketch=1;rotation=-136;direction=west;opacity=60;dashed=1;" vertex="1" parent="tB11NZ9fUsFray120b_--11">
          <mxGeometry x="85.34148969661379" y="70.99896516232045" width="17.66" height="4.52" as="geometry" />
        </mxCell>
        <mxCell id="tB11NZ9fUsFray120b_--18" value="" style="rounded=0;whiteSpace=wrap;html=1;sketch=1;fillStyle=solid;shadow=0;strokeWidth=1;fillColor=#CCCCCC;strokeColor=#808080;rotation=100;" vertex="1" parent="tB11NZ9fUsFray120b_--11">
          <mxGeometry x="60.52948574417363" y="40.496015721971816" width="51" height="16.5" as="geometry" />
        </mxCell>
        <mxCell id="tB11NZ9fUsFray120b_--24" value="" style="endArrow=classic;html=1;entryX=1;entryY=1;entryDx=0;entryDy=0;sketch=1;" edge="1" parent="tB11NZ9fUsFray120b_--11">
          <mxGeometry width="50" height="50" relative="1" as="geometry">
            <mxPoint x="139.99948574417363" y="179.99601572197182" as="sourcePoint" />
            <mxPoint x="128.28948574417365" y="114.99601572197182" as="targetPoint" />
            <Array as="points">
              <mxPoint x="149.99948574417363" y="149.99601572197182" />
              <mxPoint x="149.99948574417363" y="139.99601572197182" />
            </Array>
          </mxGeometry>
        </mxCell>
        <mxCell id="tB11NZ9fUsFray120b_--13" value="" style="rounded=0;whiteSpace=wrap;html=1;rotation=0;shadow=1;sketch=1;fillColor=#333333;fillStyle=solid;direction=south;" vertex="1" parent="1">
          <mxGeometry x="-310" y="246.46" width="33.11" height="39.12" as="geometry" />
        </mxCell>
        <mxCell id="tB11NZ9fUsFray120b_--16" value="" style="rounded=0;whiteSpace=wrap;html=1;shadow=1;glass=0;sketch=1;strokeColor=#000000;fillColor=#999999;gradientColor=none;rotation=-60;direction=west;" vertex="1" parent="1">
          <mxGeometry x="-302.95000000000005" y="204.71000000000004" width="19" height="11" as="geometry" />
        </mxCell>
        <mxCell id="tB11NZ9fUsFray120b_--10" value="" style="rounded=0;whiteSpace=wrap;html=1;shadow=1;glass=0;sketch=1;strokeColor=#000000;fillColor=#999999;gradientColor=none;rotation=-20;direction=west;" vertex="1" parent="1">
          <mxGeometry x="-484.70000000000005" y="228.90000000000003" width="19" height="11" as="geometry" />
        </mxCell>
        <mxCell id="tB11NZ9fUsFray120b_--19" value="" style="rounded=0;whiteSpace=wrap;html=1;rotation=0;shadow=0;sketch=1;fillColor=#333333;fillStyle=solid;direction=south;strokeColor=none;" vertex="1" parent="1">
          <mxGeometry x="-322.52" y="246.46" width="33.11" height="53.54" as="geometry" />
        </mxCell>
        <mxCell id="tB11NZ9fUsFray120b_--21" value="&lt;font style=&quot;font-size: 18px&quot;&gt;制高点&lt;/font&gt;" style="text;html=1;align=left;verticalAlign=middle;whiteSpace=wrap;rounded=0;sketch=1;fillColor=#ffffff;strokeColor=#000000;opacity=50;" vertex="1" parent="1">
          <mxGeometry x="-283.9499999999998" y="360" width="80" height="30" as="geometry" />
        </mxCell>
        <mxCell id="tB11NZ9fUsFray120b_--22" value="" style="endArrow=classic;html=1;entryX=1;entryY=1;entryDx=0;entryDy=0;sketch=1;" edge="1" parent="1" target="tB11NZ9fUsFray120b_--19">
          <mxGeometry width="50" height="50" relative="1" as="geometry">
            <mxPoint x="-290" y="380" as="sourcePoint" />
            <mxPoint x="-270" y="290" as="targetPoint" />
            <Array as="points">
              <mxPoint x="-323" y="360" />
              <mxPoint x="-330" y="340" />
            </Array>
          </mxGeometry>
        </mxCell>
        <mxCell id="tB11NZ9fUsFray120b_--25" value="&lt;font style=&quot;font-size: 18px&quot;&gt;制高点&lt;/font&gt;" style="text;html=1;align=left;verticalAlign=middle;whiteSpace=wrap;rounded=0;sketch=1;fillColor=#ffffff;strokeColor=#000000;opacity=50;" vertex="1" parent="1">
          <mxGeometry x="-502.1199999999998" y="390" width="80" height="30" as="geometry" />
        </mxCell>
        <mxCell id="tB11NZ9fUsFray120b_--26" value="" style="endArrow=classic;html=1;entryX=0.5;entryY=0;entryDx=0;entryDy=0;sketch=1;" edge="1" parent="1" target="tB11NZ9fUsFray120b_--1">
          <mxGeometry width="50" height="50" relative="1" as="geometry">
            <mxPoint x="-260" y="180" as="sourcePoint" />
            <mxPoint x="-328.20000000000005" y="90.32" as="targetPoint" />
            <Array as="points">
              <mxPoint x="-300" y="180" />
              <mxPoint x="-330" y="200" />
            </Array>
          </mxGeometry>
        </mxCell>
        <mxCell id="tB11NZ9fUsFray120b_--27" value="&lt;font style=&quot;font-size: 18px&quot;&gt;制高点&lt;/font&gt;" style="text;html=1;align=left;verticalAlign=middle;whiteSpace=wrap;rounded=0;sketch=1;fillColor=#ffffff;strokeColor=#000000;opacity=50;" vertex="1" parent="1">
          <mxGeometry x="-249.99999999999977" y="161.52" width="80" height="30" as="geometry" />
        </mxCell>
        <mxCell id="tB11NZ9fUsFray120b_--28" value="&lt;h1&gt;&lt;font style=&quot;font-size: 18px&quot;&gt;描述&lt;/font&gt;&amp;nbsp;&lt;font style=&quot;font-weight: normal ; font-size: 18px&quot;&gt;&amp;nbsp; &amp;nbsp;&amp;nbsp;&lt;/font&gt;&lt;/h1&gt;&lt;font style=&quot;font-size: 18px&quot;&gt;半封闭广场，角色在三个制高点交换火力，利用机甲快速转移&lt;/font&gt;" style="text;html=1;spacing=5;spacingTop=-20;whiteSpace=wrap;overflow=hidden;rounded=0;shadow=0;sketch=1;opacity=50;fillColor=#ffffff;strokeColor=#000000;" vertex="1" parent="1">
          <mxGeometry x="-802.7" y="35.96" width="262.7" height="114.04" as="geometry" />
        </mxCell>
      </root>
    </mxGraphModel>
  </diagram>
</mxfile>
